<?xml version="1.0" encoding="UTF-8" standalone="no"?>
<!DOCTYPE svg PUBLIC "-//W3C//DTD SVG 1.1//EN" "http://www.w3.org/Graphics/SVG/1.1/DTD/svg11.dtd">
<svg version="1.1" xmlns="http://www.w3.org/2000/svg" xmlns:xlink="http://www.w3.org/1999/xlink" preserveAspectRatio="xMidYMid meet" viewBox="0 0 512 512" width="512" height="512"><defs><path d="M-16 -16L512 -16L512 512L-16 512L-16 -16Z" id="aaJKwAUa"></path><path d="M257.38 16L480 16L480 144L257.38 144L257.38 16Z" id="a85z3kAkIO"></path><path d="M161.98 192L480 192L480 320L161.98 320L161.98 192Z" id="c1APYnQr5T"></path><path d="M66.57 368L480 368L480 496L66.57 496L66.57 368Z" id="bkSl50Ayp"></path><path d="M291.17 81.26C291.17 109.23 268.91 131.94 241.48 131.94C214.06 131.94 191.79 109.23 191.79 81.26C191.79 53.28 214.06 30.57 241.48 30.57C268.91 30.57 291.17 53.28 291.17 81.26Z" id="l2sqdZDwjs"></path><path d="M194.44 256C194.44 283.97 172.17 306.68 144.75 306.68C117.32 306.68 95.06 283.97 95.06 256C95.06 228.03 117.32 205.32 144.75 205.32C172.17 205.32 194.44 228.03 194.44 256Z" id="arErQESzZ"></path><path d="M96.38 432C96.38 459.97 74.12 482.68 46.69 482.68C19.27 482.68 -3 459.97 -3 432C-3 404.03 19.27 381.32 46.69 381.32C74.12 381.32 96.38 404.03 96.38 432Z" id="crWAVlf86"></path><path d="M480 16L273.28 508.96L480 508.96L480 16Z" id="ixajdsLI9"></path><path d="M273.28 78.77C273.28 95.76 259.76 109.55 243.11 109.55C226.46 109.55 212.94 95.76 212.94 78.77C212.94 61.79 226.46 48 243.11 48C259.76 48 273.28 61.79 273.28 78.77Z" id="aa8TjU607"></path><path d="M177.24 254.77C177.24 271.76 163.72 285.55 147.07 285.55C130.41 285.55 116.89 271.76 116.89 254.77C116.89 237.79 130.41 224 147.07 224C163.72 224 177.24 237.79 177.24 254.77Z" id="a1TQM5EcQH"></path><path d="M81.07 430.77C81.07 447.76 67.55 461.55 50.9 461.55C34.24 461.55 20.72 447.76 20.72 430.77C20.72 413.79 34.24 400 50.9 400C67.55 400 81.07 413.79 81.07 430.77Z" id="b9sblGmrxA"></path></defs><g><g><g><use xlink:href="#aaJKwAUa" opacity="1" fill="#ffffff" fill-opacity="1"></use></g><g><use xlink:href="#a85z3kAkIO" opacity="1" fill="#fe0000" fill-opacity="1"></use></g><g><use xlink:href="#c1APYnQr5T" opacity="1" fill="#fe0000" fill-opacity="1"></use></g><g><use xlink:href="#bkSl50Ayp" opacity="1" fill="#fe0000" fill-opacity="1"></use></g><g><use xlink:href="#l2sqdZDwjs" opacity="1" fill="#ffffff" fill-opacity="1"></use></g><g><use xlink:href="#arErQESzZ" opacity="1" fill="#ffffff" fill-opacity="1"></use></g><g><use xlink:href="#crWAVlf86" opacity="1" fill="#ffffff" fill-opacity="1"></use></g><g><use xlink:href="#ixajdsLI9" opacity="1" fill="#ffffff" fill-opacity="1"></use></g><g><use xlink:href="#aa8TjU607" opacity="1" fill="#ff0000" fill-opacity="1"></use></g><g><use xlink:href="#a1TQM5EcQH" opacity="1" fill="#ff0000" fill-opacity="1"></use></g><g><use xlink:href="#b9sblGmrxA" opacity="1" fill="#ff0000" fill-opacity="1"></use></g></g></g></svg>